<svg xmlns="http://www.w3.org/2000/svg" xmlns:xlink="http://www.w3.org/1999/xlink" xmlns:xodm="http://www.corel.com/coreldraw/odm/2003" xml:space="preserve" width="3976" height="4684" version="1.1" style="shape-rendering:geometricPrecision; text-rendering:geometricPrecision; image-rendering:optimizeQuality; fill-rule:evenodd; clip-rule:evenodd"><rect id="backgroundrect" width="100%" height="100%" x="0" y="0" fill="none" stroke="none"/>
 <defs>
  <style type="text/css">
   <![CDATA[
    .fil1 {fill:none}
    .fil0 {fill:#D550E6}
    .fil2 {fill:#E26AF2}
   ]]>
  </style>
 </defs>
 
<g class="currentLayer" style=""><title>Layer 1</title><g id="Layer_x0020_1" class="">
  <metadata id="CorelCorpID_0Corel-Layer" transform="translate(-3244.314453125,-1730.6124267578125) "/>
  <g id="_3121693591840">
   <path class="fil0" d="M1492.8255468750003,4283.757573242187 c-182.93,260.2 -442.92,292.55 -747.28,246.82 c-138.31,-20.78 -75.63,-34.12 -125.55,-22.22 c-23.43,-19.32 -11.46,-6.41 -31.08,-42.75 l0,-0.010000000000000002 c10.65,-39.91 2,-24.56 20.31,-48.8 l-10.46,2.5 l90.05,-90.38 c76.91,-61.54 391.95,-181.49 354.19,-263.46 c60.28,-124.22 209.84,-176.05 334.06,-115.77 c124.22,60.28 176.05,209.84 115.77,334.06 z" id="svg_1"/>
  </g>
  <path class="fil1" d="M1267.9155468749996,4174.607573242188 c-98.14,202.24 -379.81,187.83 -653.3,287.97 l-25.7,3.02 " id="svg_2"/>
  <path class="fil1" d="M588.9255468749998,4174.607573242188 c98.14,202.24 379.81,187.83 653.3,287.97 l25.7,3.02 " id="svg_3"/>
  <g id="_3121693590640">
   <path class="fil0" d="M2817.4055468750003,3989.787573242187 c197.2,261.85 285.22,230.1 413.13,377.67 l58.43,85.83 c-6.8,16.07 -26.91,1.07 -53.31,20.96 c-2.18,0.46 -5.79,1.77 -0.3400000000000001,0.26 c-0.9500000000000001,0.7200000000000001 -1.9100000000000001,1.49 -2.87,2.31 c5.79,-2.74 4.98,-2.93 3.21,-2.56 l-0.3400000000000001,0.26 c3.74,-1.04 11.72,-3.39 27.36,-8.26 l66.33,77.78 l-7.25,17.07 l-0.5700000000000001,0.23 l-0.7100000000000001,-1.83 c-2.05,-0.46 -45.51,10 -62.1,14.03 l15.18,17.8 c38.48,-11.95 15.26,-5.54 29.58,-10.16 c-56.35,43.08 -126.56,-5.11 -199.73,-16.06 c-334.73,-50.1 -303.29,0.11000000000000001 -633.71,-216.01 c-99.22,-96.02 -101.81,-254.29 -5.79,-353.5 c96.02,-99.22 254.29,-101.81 353.5,-5.79 zm395.73,530.7 c0.17,-5.48 0.7600000000000001,-12.8 1.12,-23.54 l-7.01,16.63 l5.890000000000001,6.91 z" id="svg_4"/>
  </g>
  <path class="fil1" d="M2643.5455468749997,4169.4275732421875 c277.64,268.7 410.12,186 588.55,346.93 c46.41,41.85 42.14,-27.78 19.9,58.7 " id="svg_5"/>
  <ellipse class="fil2" cx="2013.78564453125" cy="2473.3973388671875" rx="1776.0999755859375" ry="2152.31005859375" id="svg_6"/>
  <g id="_3121693592416">
   <path class="fil2" d="M1964.5455468749997,4571.4275732421875 l-0.13,0.030000000000000006 c185.83,2.6900000000000004 176.58,-184.11 269.69,-112.34 c239.24,184.41 163.76,59.86 259.33,-26.77 c45.79,-41.5 261.14,-4.15 289.51,-139.4 c38.73,-184.64 168.23,-175.5 288.88,-212.38 c-39.4,-151.28 176.17,-199.75 284.7,-254.97 c-1.6700000000000002,-3.08 -3.6,-6.58 -5.86,-10.59 c-156.58,-277.24 140.81,-318.28 217.99,-355.17 l-8.48,-18.78 c-135.84,-266.72 -193.6,-395.9 70.6,-586.54 c-21.98,-48.61 -44.72,-78.81 -72.17,-130.11 c-134.51,-251.39 -38.29,-291.7 30.69,-378.56 c-28.09,-25.77 -56.45,-56.17 -56.45,-56.17 c-94.42,-123.09 -14.01,-220.04 52.14,-296.48 c-62.44,-35.58 -120.09,-71.14 -157.87,-145.58 c-68.91,-135.79 -12.34,-207.53 34.53,-285.88 c-106.43,-63.26 -245.8,-95.96 -319.31,-208.49 c-80.5,-123.22 -36.35,-189.04 0.23,-274.52 l-8.67,-3.6100000000000003 c-161.56,-67.36 -249.9,-137.06 -252.26,-270.23 c-112.71,31.81 -247.59,51.86 -342.67,-3.6100000000000003 c-88.17,-51.43 -116.43,-109.33 -123.89,-170.83 c-163.52,56.63 -289.65,-8.81 -415.91,-151.22 c-85.3,23.62 -168.52,20.75 -277.98,1.01 c-88.57,90.04 -174.22,139.88 -283.96,135.23 c-19.11,52.98 -43.61,87.39 -104,154.17 l4.45,-9.59 c-66.3,90.08 -160.99,67.89 -287.32,63.78 c-17.72,55.33 -31.25,81.39 -93.2,172 c-107.67,157.47 -59.66,73.41 -164.23,259.59 c-143.83,256.08 -162.33,191.83 -289.82,269.63 c-2.84,222.34 127.65,600.89 -185.86,693.1 c7.22,49.96 31.63,117.33 40.26,141.85 c81.56,231.5 230.62,384.67 49.16,540.05 c61.65,112.52 377.63,328.54 133.18,549.12 c84.53,135.09 274.35,202.17 279.57,376.64 c5.86,195.78 400.28,144.98 345.26,320.33 c48,93.13 174.08,121.19 257.83,161.92 c131.59,64 139.78,139.6 213.42,230.44 l-0.18000000000000002,0.7400000000000001 c42.11,-13.09 174.38,-58.41 216.55,-39.37 c30.95,13.98 -1.6800000000000002,22.27 112.28,71.56 zm-12.49,3.02 l-0.8800000000000001,0.21000000000000002 c0.6000000000000001,0.42000000000000004 1.19,0.8 1.77,1.1400000000000001 c-0.26,-0.48000000000000004 -0.55,-0.93 -0.8900000000000001,-1.35 zm-22.68,5.11 c-97.96,20.76 -58.39,-7.97 -103.4,-24.96 c2.02,2.29 2.3200000000000003,2.36 4.91,3.9 l0.06000000000000001,0.55 c-220.93,68.33 -179.44,158.74 -341.39,-29.36 c-126.81,-147.29 -435.11,-137.94 -496.17,-345.48 c-201.23,-55.34 -364.94,-132.1 -388.03,-364.73 c0.030000000000000006,1.12 1.5,13.53 1.07,16.03 c-121.49,-152.09 -473.98,-289.08 -238.89,-566.24 c-33.37,-33.85 -193.27,-217.61 -210.13,-249.1 c-64.14,-119.8 -43.06,-216.67 29.27,-299.6 c-104.36,-243.57 -365.18,-690.61 6.01,-802.63 l-5.3,-138.37 c-41.88,-347.06 -107.14,-441.79 237.24,-614.55 c7.7,-3.87 146.35,-281.25 163.57,-307.57 c130.42,-199.39 57.95,-96.11 131.12,-273.13 c57.92,-140.14 213.21,-157.96 353.45,-157.44 c38.39,-130.21 78.99,-270.12 280.8,-250.65 c24.87,2.4 45.45,8.41 66.52,15.19 c176.13,-182.27 188.25,-132.78 433.83,-126.92 c112.69,2.6900000000000004 204.11,-199.55 454.4,98.81 c4.25,5.07 9.18,11.38 14.56,17.97 c254.9,-129.91 475.12,-41.26 519.9,196.31 c131.68,-29.38 226.73,-46.81 396.44,106.09 c103.28,93.05 91.72,163.57 74.61,232.72 c156.7,83.87 296.41,192.41 230.83,415.19 c-4.68,15.89 -8.93,28.93 -13.11,40.28 c155.8,85.94 454.65,237.45 274.56,530.28 c59.53,42.66 132.97,118.7 152.46,167.6 c42.41,106.41 3.5300000000000002,215.4 -65.68,299.67 c104.36,127.82 61.43,252 -66.17,389.06 c58,150.3 247.7,375.16 -17.99,535.53 c-67.28,40.61 -26.61,15.16 -73.97,52.73 c-6.07,62.67 321.8,485.69 -152.71,585.99 c32.21,67.72 71.67,156.92 -25.67,241.32 c-90.38,78.37 -168.96,84.15 -262.78,120.23 c20.5,227.63 -307.28,160.38 -331.14,231.2 c-57.44,170.52 -213.24,246.06 -383.97,233.99 c-69.02,84.31 -122.29,170.89 -266.2,95.45 c-51.44,-26.96 -86.25,-62.56 -123.94,-102.41 c-65.98,47.02 -111.85,114.92 -246.51,53.64 c-7.09,-2.6900000000000004 -11.38,-10.15 -16.96,-23.01 c1.73,-1.33 3.22,-2.52 4.52,-3.6 zm-1553.95,-1319.35 c2.12,-2.17 1.8800000000000001,-1.56 2.41,-4.34 c-1,1.57 -1.79,3 -2.41,4.34 zm-150.58,-1350.69 c3.79,-0.8700000000000001 7.49,-1.78 11.39,-2.59 c-4.04,0.5 -7.82,1.3800000000000001 -11.39,2.59 zm1226.09,-1708.19 l3.6900000000000004,1.11 c-1.19,-0.44000000000000006 -2.42,-0.81 -3.6900000000000004,-1.11 zm2007.85,925.03 c-1.42,-1.4300000000000002 -2.89,-2.83 -4.42,-4.19 c1.31,1.37 2.81,2.77 4.42,4.19 zm-178.08,2904.31 c-0.6500000000000001,-2.46 -1.4,-4.95 -2.24,-7.5 c0.81,2.55 1.5,5.01 2.24,7.5 zm300.52,-578.43 c0.93,-0.79 1.78,-1.59 2.46,-2.39 c-0.91,0.7200000000000001 -1.7200000000000002,1.53 -2.46,2.39 zm74.34,-615.12 c3.22,-2.2 6.43,-4.41 9.73,-6.63 c-3.51,0.4 -6.78,2.92 -9.73,6.63 zm-170.46,-1318.47 c0.8300000000000001,-1.78 1.6600000000000001,-3.56 2.46,-5.35 c-0.9500000000000001,1.77 -1.77,3.56 -2.46,5.35 zm-325.53,-484.54 l1,-3.12 c-0.39000000000000007,1.03 -0.7200000000000001,2.07 -1,3.12 zm-1004.05,-624.78 c2.8,-1.6300000000000001 5.63,-3.31 8.46,-5.07 c-2.84,1.7200000000000002 -5.66,3.41 -8.46,5.07 zm-1075.41,318.24 c3.36,-9.17 6.44,-18.9 9.43,-29.22 c-3.41,10.4 -6.54,20.11 -9.43,29.22 zm-764.82,1461.41 c0.7000000000000001,-2.56 0.98,-5.2 0.7200000000000001,-7.92 c-0.37000000000000005,2.47 -0.6000000000000001,5.12 -0.7200000000000001,7.92 zm219.33,1251.57 c-0.19000000000000003,-0.7400000000000001 -0.43000000000000005,-1.53 -0.7300000000000001,-2.38 l-0.24000000000000002,0.7400000000000001 l0.9600000000000001,1.6400000000000001 zm627.51,700.46 c-0.35000000000000003,-1.4300000000000002 -0.92,-2.73 -1.77,-3.84 c0.5700000000000001,1.29 1.17,2.5700000000000003 1.77,3.84 zm472.26,398.67 c-2.13,-0.08000000000000002 -2.56,-0.09000000000000002 -5.19,0.99 l0.12000000000000001,0.54 c1.47,-0.43000000000000005 3.17,-0.9400000000000001 5.07,-1.53 z" id="svg_7"/>
  </g>
  <path class="fil1" d="M1964.5455468749997,4571.4275732421875 c-212.11,0 3.02,-109.45 -317.45,15.37 c-84.65,32.97 -98.57,-198.8 -329.8,-238.09 c-24.97,-4.24 -287.31,-138.55 -236.07,-230.03 c7.35,-13.12 -375.59,-71.16 -368.85,-296.04 c3.83,-127.94 -438.91,-299.07 -254.97,-467.36 c208.17,-190.46 -412.72,-388.27 -114.64,-585.02 c62.11,-41 -372.72,-669.93 -88.18,-702.43 c233.17,-26.63 4.59,-573.31 97.76,-653.3 c180.22,-154.71 153.35,20.82 338.11,-366.08 c52.31,-109.55 174.19,-194.73 207.1,-383.46 c10.24,-58.72 221.99,-35.27 291,-35.27 c0.17,-1.4300000000000002 56.05,-35.2 76.34,-147.14 c45.81,-252.74 139.45,74.35 330.05,-174.6 c90.22,-117.83 257.37,50.16 442.42,-81.63 c73.4,-52.28 166.87,330.42 388,149.91 c44.37,-36.22 255.1,-98.96 202.82,158.72 c-40.33,198.82 279.18,-13.42 379.18,44.09 c191.7,110.24 72.98,70.51 85.16,235.82 c5.83,79.13 404.19,72.93 214.66,361.54 c-108.81,165.7 537.29,194.83 314.43,467.36 c-197.85,241.95 408.37,175.71 80.12,471.89 c-156.24,140.98 269.85,92.93 -26.45,365.83 c-105.98,97.61 250.06,378.21 61.73,480.72 c-405.47,220.69 192.19,474.93 -123.46,624.57 c-91.13,43.2 -261.05,8.43 -134.54,203.57 c108.56,167.45 -337.56,177.2 -300.57,271.85 c73.47,188.02 -266.64,49.9 -305.61,245.4 c-18.04,90.47 -177.51,208.99 -316.7,174.85 c-46.33,-11.36 -69.61,297.76 -351.22,16.13 c-33.5,-33.5 -71.09,137.35 -247.66,92.72 c-42.86,-10.83 13.91,5 24.94,6.55 " id="svg_8"/>
 </g></g></svg>