<svg xmlns="http://www.w3.org/2000/svg" xmlns:xlink="http://www.w3.org/1999/xlink" xmlns:xodm="http://www.corel.com/coreldraw/odm/2003" xml:space="preserve" width="8180" height="1676" version="1.1" style="shape-rendering: geometricprecision; text-rendering: geometricprecision; fill-rule: evenodd; clip-rule: evenodd;"><rect id="backgroundrect" width="100%" height="100%" x="0" y="0" fill="none" stroke="none"/>
 <defs>
  <style type="text/css">
   <![CDATA[
    .str1 {stroke:#288ABF;stroke-width:41.67;stroke-miterlimit:2.61313}
    .str0 {stroke:#6E6E6E;stroke-width:41.67;stroke-miterlimit:2.61313}
    .str2 {stroke:#DE2A2A;stroke-width:41.67;stroke-miterlimit:2.61313}
    .fil1 {fill:#5AC2FA}
    .fil2 {fill:#FC5B5B}
    .fil0 {fill:white}
   ]]>
  </style>
 </defs>
 
<g class="currentLayer" style=""><title>Layer 1</title><g id="Layer_x0020_1" class="">
  <metadata id="CorelCorpID_0Corel-Layer" transform="translate(-1444.68994140625,-3346.77978515625) "/>
  <rect class="fil0 str0" x="0" y="0.14013671875" width="8179.8701171875" height="254.69000244140625" rx="19.90999984741211" ry="20" id="svg_1"/>
  <path class="fil0 str0" d="M567.6300585937499,0.14021484375007276 l3091.8,0 c11,0 20,9 20,20 l0,1635.62 c0,11 -9,20 -20,20 l-3041.8,0 c-27.5,0 -50,-22.5 -50,-50 l0,-1625.62 z" id="svg_2"/>
  <path class="fil0 str0" d="M4550.00005859375,0.00021484375020008883 l3001.17,0 c16.5,0 30,13.5 30,30 l0,1615.62 c0,16.5 -13.5,30 -30,30 l-2951.17,0 c-27.5,0 -50,-22.5 -50,-50 l0,-1625.62 z" id="svg_3"/>
  <path class="fil1 str1" d="M1035.0500585937498,254.83021484375013 l2180.64,0 c27.5,0 50,22.5 50,50 l0,1055.72 c0,27.5 -22.5,50 -50,50 l-2230.64,0 l0,-1105.72 c0,-27.5 22.5,-50 50,-50 z" id="svg_4"/>
  <rect class="fil2 str2" x="4928.02001953125" y="254.690185546875" width="2280.639892578125" height="1155.719970703125" rx="42.97999954223633" ry="50" id="svg_5"/>
 </g></g></svg>