<svg xmlns="http://www.w3.org/2000/svg" xmlns:xlink="http://www.w3.org/1999/xlink" xmlns:xodm="http://www.corel.com/coreldraw/odm/2003" xml:space="preserve" width="7300" height="3099" version="1.1" style="shape-rendering: geometricprecision; text-rendering: geometricprecision; fill-rule: evenodd; clip-rule: evenodd;"><rect id="backgroundrect" width="100%" height="100%" x="0" y="0" fill="none" stroke="none"/>
 <defs>
  <style type="text/css">
   <![CDATA[
    .str0 {stroke:black;stroke-width:41.67;stroke-miterlimit:2.61313}
    .fil1 {fill:none}
    .fil2 {fill:black}
    .fil0 {fill:#FF87D7}
   ]]>
  </style>
 </defs>
 
<g class="currentLayer" style=""><title>Layer 1</title><g id="Layer_x0020_1" class="">
  <metadata id="CorelCorpID_0Corel-Layer" transform="translate(-1950.1500244140625,-2823.52001953125) "/>
  <ellipse class="fil0 str0" cx="1580.4300537109375" cy="1549.58984375" rx="1580.4300537109375" ry="1549.5899658203125" id="svg_1"/>
  <ellipse class="fil0 str0" cx="5719.4500732421875" cy="1549.58984375" rx="1580.4300537109375" ry="1549.5899658203125" id="svg_2"/>
  <path class="fil1 str0" d="M3160.8499755859375,1549.5899804687497 c152.6,-57.91 323.26,-84.32 484.89,-84.32 c164.43,0 254.2,1.7200000000000002 493.28,84.32 " id="svg_3"/>
  <g id="_3121657213312">
   <path class="fil2" d="M6638.609975585938,631.0899804687501 c-67.32,116.04 -85.22,145.57 -97.1,166.02 c79.83,-43.21 171.45,-62.69 68.79,163.6 l-153.09,261.73 c0,-0.010000000000000002 97.55,-258.21 123.06,-362.04 c-32.11,24.84 -80.96,62.04 -85.94,64.75 c-186.17,101.05 51.74,-337.28 55.58,-344.89 c14.04,-24.49 45.27,-32.98 69.76,-18.94 c24.5,14.04 32.98,45.27 18.94,69.76 zm-52.3,193.63 c-0.020000000000000004,-0.8600000000000001 -0.07,-1.6500000000000001 -0.16000000000000003,-2.35 c-0.08000000000000002,0.79 -0.020000000000000004,1.58 0.16000000000000003,2.35 z" id="svg_4"/>
  </g>
  <path class="fil1" d="M6594.259975585937,605.6799804687498 c-438.06,764.59 345.81,-349.08 -137.06,616.76 " id="svg_5"/>
 </g></g></svg>