<svg xmlns="http://www.w3.org/2000/svg" xmlns:xlink="http://www.w3.org/1999/xlink" xmlns:xodm="http://www.corel.com/coreldraw/odm/2003" xml:space="preserve" width="2604" height="2553" version="1.1" style="shape-rendering: geometricprecision; text-rendering: geometricprecision; fill-rule: evenodd; clip-rule: evenodd;"><rect id="backgroundrect" width="100%" height="100%" x="0" y="0" fill="none" stroke="none"/>
 <defs>
  <style type="text/css">
   <![CDATA[
    .str0 {stroke:#7C0582;stroke-width:41.67;stroke-miterlimit:2.61313}
    .str1 {stroke:#7C0582;stroke-width:6.94;stroke-miterlimit:2.61313}
    .fil2 {fill:#7C0582}
    .fil0 {fill:#A703B0}
    .fil1 {fill:white}
   ]]>
  </style>
 </defs>
 
<g class="currentLayer" style=""><title>Layer 1</title><g id="Layer_x0020_1" class="">
  <metadata id="CorelCorpID_0Corel-Layer" transform="translate(-3844.18994140625,-2959.099853515625) "/>
  <ellipse class="fil0 str0" cx="1301.85986328125" cy="1276.530029296875" rx="1301.8599853515625" ry="1276.530029296875" id="svg_1"/>
  <path class="fil1 str1" d="M1076.0100585937498,29.14014648437478 c74.88,-13.06 148.14,-18.45 225.82,-20.44 c74.83,0.36000000000000004 142.47,8.86 219.61,19.39 l0,591.72 l-451.52,0 c2.03,-196.89 4.06,-393.78 6.09,-590.67 z" id="svg_2"/>
  <path class="fil2" d="M1304.18005859375,1604.110146484375 c416.24,0 941.64,274.43 941.64,551.51 c-207.56,212.84 -532.92,396.8 -949.16,396.8 c-436.39,-17.99 -693.68,-159.43 -930.89,-388.74 c0,-277.09 522.17,-559.57 938.41,-559.57 z" id="svg_3"/>
 </g></g></svg>