<svg xmlns="http://www.w3.org/2000/svg" xmlns:xlink="http://www.w3.org/1999/xlink" xmlns:xodm="http://www.corel.com/coreldraw/odm/2003" xml:space="preserve" width="4900" height="2589" version="1.1" style="shape-rendering: geometricprecision; text-rendering: geometricprecision; fill-rule: evenodd; clip-rule: evenodd;"><rect id="backgroundrect" width="100%" height="100%" x="0" y="0" fill="none" stroke="none"/>
 <defs>
  <style type="text/css">
   <![CDATA[
    .str0 {stroke:#910A0A;stroke-width:41.67;stroke-miterlimit:2.61313}
    .str1 {stroke:#910A0A;stroke-width:6.94;stroke-miterlimit:2.61313}
    .fil1 {fill:#BF0B0B}
    .fil0 {fill:#D93838}
    .fil2 {fill:white}
   ]]>
  </style>
 </defs>
 
<g class="currentLayer" style=""><title>Layer 1</title><g id="Layer_x0020_1" class="">
  <metadata id="CorelCorpID_0Corel-Layer" transform="translate(-3384.040771484375,-2970.171142578125) "/>
  <path class="fil0 str0" d="M2429.9292285156253,108.53885742187504 c1593.64,0 2470.43,-386.31 2470.43,298.68 c0,684.98 -876.79,2181.87 -2470.43,2181.87 c-1593.64,0 -2429.93,-1446.27 -2429.93,-2131.25 c0,-684.98 836.29,-349.3 2429.93,-349.3 z" id="svg_1"/>
  <path class="fil1" d="M2429.9292285156253,2569.088857421875 c633.02,0 1091.27,-235.34 1311.61,-388.83 c-140.9,-288.49 -674.55,-645.28 -1307.57,-645.28 c-633.02,0 -1271.08,364.19 -1343.69,632.86 c277.93,176.03 706.63,401.25 1339.65,401.25 z" id="svg_2"/>
  <polygon class="fil2 str1" points="3785.209228515625,53.18896484375 3150.739013671875,103.9189453125 3450.679443359375,806.48876953125 " id="svg_3"/>
  <polygon class="fil2 str1" points="1088.649169921875,66.678955078125 1723.159423828125,108.298828125 1423.218994140625,810.868896484375 " id="svg_4"/>
 </g></g></svg>