<svg xmlns="http://www.w3.org/2000/svg" xmlns:xlink="http://www.w3.org/1999/xlink" xmlns:xodm="http://www.corel.com/coreldraw/odm/2003" xml:space="preserve" width="5549" height="1559" version="1.1" style="shape-rendering: geometricprecision; text-rendering: geometricprecision; fill-rule: evenodd; clip-rule: evenodd;"><rect id="backgroundrect" width="100%" height="100%" x="0" y="0" fill="none" stroke="none"/>
 <defs>
  <style type="text/css">
   <![CDATA[
    .str2 {stroke:black;stroke-width:41.67;stroke-miterlimit:2.61313}
    .str0 {stroke:#DB6DB6;stroke-width:41.67;stroke-miterlimit:2.61313}
    .str1 {stroke:#DB6DB6;stroke-width:13.89;stroke-miterlimit:2.61313}
    .fil1 {fill:none}
    .fil0 {fill:#FAA5DE}
   ]]>
  </style>
 </defs>
 
<g class="currentLayer" style=""><title>Layer 1</title><g id="Layer_x0020_1" class="">
  <metadata id="CorelCorpID_0Corel-Layer" transform="translate(-2893.330078125,-3401.689453125) "/>
  <path class="fil0 str0" d="M2755.799921875,0.0005468750000545697 c66.68,92.92 209.75,234.88 385.4,392.16 c45.47,129.09 94.47,308.38 94.47,506.75 c0,501.11 -205.08,660.22 -454.6,660.22 c-249.52,0 -519.19,-150.7 -519.19,-651.8 c0,-224.54 57.41,-362.35 112.15,-507.97 c137.98,-134.83 300.78,-306.35 381.77,-399.36 z" id="svg_1"/>
  <path class="fil1 str1" d="M2753.679921875,2.440546875000109 c-5.17,216.92 -46.32,485.86 -40.15,747.26 c5.16,218.89 6.61,292.84 34.57,474.5 " id="svg_2"/>
  <path class="fil1 str2" d="M-0.00007812500007275958,125.44054687500011 c211.54,355.43 861.07,796.76 1381.75,800.09 c480.89,3.07 1130.95,-617.73 1371.39,-923.8 c217.52,286.38 857.21,844.53 1323.75,847.51 c564.93,3.6100000000000003 992.97,-133.05 1472.02,-730.56 " id="svg_3"/>
 </g></g></svg>